<svg width="755" height="642" viewBox="0 0 755 642" fill="none" xmlns="http://www.w3.org/2000/svg">
<path d="M753 1L728.073 32.6387C727.378 33.5205 727 34.6104 727 35.7331V57.7946C727 59.1996 726.409 60.5397 725.371 61.487L705.629 79.513C704.591 80.4603 704 81.8004 704 83.2054V102.169C704 103.925 703.079 105.553 701.572 106.457L659 132M659 132L667.126 149.064C668.2 151.32 667.444 154.022 665.356 155.393L602.681 196.553C602.23 196.849 601.734 197.07 601.212 197.208L532.233 215.411C530.816 215.785 529.635 216.761 529.001 218.082L518 241M659 132H640.519C638.934 132 637.444 132.751 636.501 134.024L619.499 156.976C618.556 158.249 617.066 159 615.481 159H596.362C595.47 159 594.595 159.238 593.826 159.69L581.033 167.216C579.214 168.286 576.918 168.099 575.297 166.747L568.512 161.093C566.986 159.822 564.852 159.574 563.075 160.462L549.137 167.431C547.254 168.373 544.983 168.034 543.457 166.584L529.305 153.14C527.433 151.361 524.513 151.301 522.569 153.002L511.414 162.763C510.502 163.56 509.332 164 508.121 164H499.403C497.884 164 496.448 164.69 495.499 165.877L485 179M518 241L477.081 255.274C475.755 255.737 474.685 256.735 474.132 258.026L461.299 287.97C460.511 289.808 458.703 291 456.703 291H432M518 241L504.45 269.003C503.572 270.818 503.87 272.983 505.206 274.494L524.323 296.104C525.377 297.296 525.801 298.919 525.465 300.474L518 335M432 291V326.096C432 328.39 430.439 330.39 428.213 330.947L389.12 340.72C388.383 340.904 387.698 341.254 387.116 341.742L364.392 360.831C363.493 361.586 362.888 362.634 362.684 363.79L357.729 391.869C357.307 394.258 355.231 396 352.805 396H326.814C325.067 396 323.446 396.912 322.54 398.405L315.5 410M432 291H409.41C408.488 291 407.584 290.745 406.798 290.263L378.671 273.024C377.597 272.366 376.314 272.137 375.078 272.384L359.5 275.5M1 600L43.8106 580.022C45.1937 579.376 46.7959 579.398 48.161 580.081L59 585.5M59 585.5L70.1052 591.053C71.3163 591.658 72.7212 591.747 73.9987 591.298L108.244 579.266C108.745 579.09 109.214 578.835 109.635 578.511L134.02 559.754C134.664 559.259 135.418 558.928 136.219 558.79L185.751 550.25C189.229 549.65 191.008 545.733 189.17 542.719L171.205 513.256C169.553 510.546 170.811 507.003 173.802 505.941L197.251 497.62C198.38 497.22 199.327 496.428 199.921 495.389L207 483M59 585.5L39.7293 598.806C38.6233 599.57 37.8713 600.746 37.6429 602.071L33.439 626.454C33.1636 628.051 32.1311 629.416 30.669 630.115L10 640M207 483L213.56 471.519C214.451 469.961 216.107 469 217.902 469H238.615C240.659 469 242.498 467.755 243.257 465.857L251.169 446.077C251.698 444.756 252.765 443.722 254.103 443.235L305.347 424.601C306.417 424.212 307.322 423.47 307.913 422.497L315.5 410M207 483L190.477 476.043C188.93 475.392 187.16 475.56 185.764 476.491L178.068 481.621C176.765 482.49 175.131 482.698 173.652 482.183L156.768 476.311C154.564 475.544 152.122 476.404 150.886 478.383L150.484 479.026C149.087 481.261 146.194 482.028 143.873 480.778L125.404 470.833C123.399 469.753 120.919 470.165 119.369 471.833L109.437 482.529C109.147 482.842 108.818 483.116 108.458 483.345L87 497M315.5 410L323.274 422.804C323.749 423.586 324 424.484 324 425.399V436.14C324 437.912 323.062 439.552 321.535 440.45L320.164 441.256C317.65 442.735 316.931 446.044 318.603 448.433L331.576 466.966C332.473 468.247 332.719 469.875 332.24 471.364L324.546 495.301C324.193 496.4 323.471 497.342 322.502 497.969L307 508M307 508L300 532M307 508L324 532M287 298L313.69 291.445C314.857 291.158 315.882 290.46 316.577 289.479L322.505 281.11C323.443 279.787 324.964 279 326.586 279H341.505C341.834 279 342.163 278.967 342.485 278.903L359.5 275.5M287 298L298.015 314.099C299.206 315.839 299.177 318.14 297.942 319.85L288.839 332.453C287.715 334.01 285.798 334.785 283.907 334.448L260.499 330.268C259.522 330.093 258.515 330.213 257.606 330.613L234 341L193.487 352.858C193.163 352.952 192.85 353.08 192.552 353.237L177.621 361.142C176.574 361.696 175.365 361.861 174.209 361.607L136.567 353.344C135.548 353.12 134.484 353.221 133.525 353.632L114 362M287 298L260.752 291.438C259.62 291.155 258.622 290.485 257.932 289.544L250.781 279.792C249.218 277.661 246.267 277.114 244.045 278.543L237.651 282.653C235.557 283.999 232.791 283.6 231.163 281.715L217.51 265.906C216.03 264.192 213.582 263.687 211.545 264.675L183.53 278.258C182.538 278.739 181.733 279.535 181.239 280.521L177.652 287.697C176.67 289.66 174.523 290.754 172.357 290.393L140 285M359.5 275.5L348.696 257.181C348.24 256.408 347.585 255.772 346.799 255.339L329.774 245.976C328.636 245.35 327.786 244.306 327.405 243.065L325.619 237.263C324.751 234.442 321.642 232.983 318.917 234.118L313.408 236.413C312.49 236.796 311.479 236.896 310.504 236.701L288.915 232.383C287.683 232.137 286.59 231.436 285.852 230.421L274.854 215.3C272.914 212.632 268.967 212.541 266.906 215.117L259 225L248.749 236.183C248.255 236.721 247.886 237.361 247.666 238.056L242 256" stroke="white" stroke-width="3"/>
</svg>
