<svg width="1211" height="778" viewBox="0 0 1211 778" fill="none" xmlns="http://www.w3.org/2000/svg">
<path d="M659 134L704 107V83L727 62V36L753 3L802 42V67L817 95L807 134L794 173M659 134L669 155L602 199L530 218L518 243M659 134H638L618 161H595L578 171L566 161L546 171L526 152L510 166H497L485 181M518 243L475 258L460 293H432M518 243L503 274L526 300L518 337M432 293V332L388 343L363 364L357 398H324L315.5 412M432 293H408L377 274L359.5 277.5M1 602L46 581L59 587.5M59 587.5L72 594L109 581L135 561L193 551L168 510L199 499L207 485M59 587.5L38 602L33 631L10 642M207 485L215 471H242L252 446L307 426L315.5 412M207 485L188 477L176 485L153 477L148 485L122 471L109 485L87 499M315.5 412L324 426V441L315.5 446L333 471L324 499L307 510M307 510L300 534M307 510L324 534M287 300L315.5 293L324 281H342L359.5 277.5M287 300L300 319L287 337L259 332L234 343L193 355L176 364L135 355L114 364M287 300L259 293L248 278L234 287L215 265L182 281L176 293L140 287M359.5 277.5L348 258L328 247L324 234L312 239L287 234L271 212L259 227L248 239L242 258M776 265L765 239L781 212L794 173M776 265L769 315L753 324L733 319L727 337L693 324L701 350.5M776 265L798 312L825 332L830 355L863 377M977 777L962 759L967 731L936 718L923 698L899 692L891 671H863L842 655L817 647L802 625L776 612L727 602L744 581L738 551L744 534L733 505L701 495L677 477L668 464M794 173L802 193L825 199L839 222L863 227L891 258L913 252L915 274M946 332L917 296L915 274M915 274L936 265L946 281L967 287M863 377L891 372L899 388L927 381L923 393L936 426L957 441L967 466L989 461V477H1016L1043 499M863 377L899 418V436L913 451L904 466L913 485L899 505L882 510M1043 499L1069 490L1091 525L1110 519L1115.19 535M1043 499L1036 519L1043 544L1036 573M1147 561L1122 556L1120.38 551M1120.38 551L1110 573L1122 594V618L1136 642M1120.38 551L1115.19 535M1115.19 535L1136 534L1147 544L1171 534L1200 544L1209 561M711 411.5L718 405L704 393L709 377L701 350.5M711 411.5L704 418H693L685 441L659 451L668 464M711 411.5L718 426L730 430L738 436L753 446V461L769 446L776 461H802L807 490H817V525L825 534M668 464H652L644 477L626 471L632 488M677 519L669 510V499L659 510L652 505H638L632 488M632 488L618 495V505H595L585 525M701 350.5L677 355L668 372L652 388V405" stroke="white" stroke-width="3"/>
</svg>
